<svg viewBox="0 0 330 200" xmlns="http://www.w3.org/2000/svg"><g><g><g><g><g><line x1="51.53200149536133" y1="176.89999961853027" x2="46.53200149536133" y2="176.89999961853027" style="visibility: inherit;" fill="rgb(0, 0, 0)" stroke="rgb(204, 204, 204)" stroke-width="1px"></line><line x1="51.53200149536133" y1="157.24444410536023" x2="46.53200149536133" y2="157.24444410536023" style="visibility: inherit;" fill="rgb(0, 0, 0)" stroke="rgb(204, 204, 204)" stroke-width="1px"></line><line x1="51.53200149536133" y1="137.5888885921902" x2="46.53200149536133" y2="137.5888885921902" style="visibility: inherit;" fill="rgb(0, 0, 0)" stroke="rgb(204, 204, 204)" stroke-width="1px"></line><line x1="51.53200149536133" y1="117.9333330790202" x2="46.53200149536133" y2="117.9333330790202" style="visibility: inherit;" fill="rgb(0, 0, 0)" stroke="rgb(204, 204, 204)" stroke-width="1px"></line><line x1="51.53200149536133" y1="98.27777756585013" x2="46.53200149536133" y2="98.27777756585013" style="visibility: inherit;" fill="rgb(0, 0, 0)" stroke="rgb(204, 204, 204)" stroke-width="1px"></line><line x1="51.53200149536133" y1="78.62222205268012" x2="46.53200149536133" y2="78.62222205268012" style="visibility: inherit;" fill="rgb(0, 0, 0)" stroke="rgb(204, 204, 204)" stroke-width="1px"></line><line x1="51.53200149536133" y1="58.9666665395101" x2="46.53200149536133" y2="58.9666665395101" style="visibility: inherit;" fill="rgb(0, 0, 0)" stroke="rgb(204, 204, 204)" stroke-width="1px"></line><line x1="51.53200149536133" y1="39.311111026340036" x2="46.53200149536133" y2="39.311111026340036" style="visibility: inherit;" fill="rgb(0, 0, 0)" stroke="rgb(204, 204, 204)" stroke-width="1px"></line><line x1="51.53200149536133" y1="19.65555551317" x2="46.53200149536133" y2="19.65555551317" style="visibility: inherit;" fill="rgb(0, 0, 0)" stroke="rgb(204, 204, 204)" stroke-width="1px"></line><line x1="51.53200149536133" y1="0" x2="46.53200149536133" y2="0" style="visibility: inherit;" fill="rgb(0, 0, 0)" stroke="rgb(204, 204, 204)" stroke-width="1px"></line></g><g transform="translate(41.53200149536133, 0)"><text style="text-anchor: end; visibility: hidden; font-family: Roboto, sans-serif; font-size: 12px; font-weight: 200;" x="0" y="176.89999961853027" dx="0em" dy="0.3em" fill="rgb(33, 33, 33)" stroke="none" stroke-width="1px">0.12</text><text style="text-anchor: end; visibility: inherit; font-family: Roboto, sans-serif; font-size: 12px; font-weight: 200;" x="0" y="157.24444410536023" dx="0em" dy="0.3em" fill="rgb(33, 33, 33)" stroke="none" stroke-width="1px">0.14</text><text style="text-anchor: end; visibility: hidden; font-family: Roboto, sans-serif; font-size: 12px; font-weight: 200;" x="0" y="137.5888885921902" dx="0em" dy="0.3em" fill="rgb(33, 33, 33)" stroke="none" stroke-width="1px">0.16</text><text style="text-anchor: end; visibility: inherit; font-family: Roboto, sans-serif; font-size: 12px; font-weight: 200;" x="0" y="117.9333330790202" dx="0em" dy="0.3em" fill="rgb(33, 33, 33)" stroke="none" stroke-width="1px">0.18</text><text style="text-anchor: end; visibility: hidden; font-family: Roboto, sans-serif; font-size: 12px; font-weight: 200;" x="0" y="98.27777756585013" dx="0em" dy="0.3em" fill="rgb(33, 33, 33)" stroke="none" stroke-width="1px">0.2</text><text style="text-anchor: end; visibility: inherit; font-family: Roboto, sans-serif; font-size: 12px; font-weight: 200;" x="0" y="78.62222205268012" dx="0em" dy="0.3em" fill="rgb(33, 33, 33)" stroke="none" stroke-width="1px">0.22</text><text style="text-anchor: end; visibility: hidden; font-family: Roboto, sans-serif; font-size: 12px; font-weight: 200;" x="0" y="58.9666665395101" dx="0em" dy="0.3em" fill="rgb(33, 33, 33)" stroke="none" stroke-width="1px">0.24</text><text style="text-anchor: end; visibility: inherit; font-family: Roboto, sans-serif; font-size: 12px; font-weight: 200;" x="0" y="39.311111026340036" dx="0em" dy="0.3em" fill="rgb(33, 33, 33)" stroke="none" stroke-width="1px">0.26</text><text style="text-anchor: end; visibility: hidden; font-family: Roboto, sans-serif; font-size: 12px; font-weight: 200;" x="0" y="19.65555551317" dx="0em" dy="0.3em" fill="rgb(33, 33, 33)" stroke="none" stroke-width="1px">0.28</text><text style="text-anchor: end; visibility: hidden; font-family: Roboto, sans-serif; font-size: 12px; font-weight: 200;" x="0" y="0" dx="0em" dy="0.3em" fill="rgb(33, 33, 33)" stroke="none" stroke-width="1px">0.3</text></g><line x1="51.53200149536133" y1="0" x2="51.53200149536133" y2="176.89999961853027" fill="rgb(0, 0, 0)" stroke="rgb(204, 204, 204)" stroke-width="1px"></line></g></g><g transform="translate(51, 0)" clip-path="url(#clip_0)"><clipPath id="clip_0"><rect width="278" height="176"></rect></clipPath><g><g><g><line x1="0" y1="0" x2="0" y2="176.89999961853027" fill="rgb(0, 0, 0)" stroke="rgb(66, 66, 66)" stroke-width="1px" opacity="0.25"></line><line x1="27.846799850463867" y1="0" x2="27.846799850463867" y2="176.89999961853027" fill="rgb(0, 0, 0)" stroke="rgb(66, 66, 66)" stroke-width="1px" opacity="0.25"></line><line x1="55.693599700927734" y1="0" x2="55.693599700927734" y2="176.89999961853027" fill="rgb(0, 0, 0)" stroke="rgb(66, 66, 66)" stroke-width="1px" opacity="0.25"></line><line x1="83.5403995513916" y1="0" x2="83.5403995513916" y2="176.89999961853027" fill="rgb(0, 0, 0)" stroke="rgb(66, 66, 66)" stroke-width="1px" opacity="0.25"></line><line x1="111.38719940185547" y1="0" x2="111.38719940185547" y2="176.89999961853027" fill="rgb(0, 0, 0)" stroke="rgb(66, 66, 66)" stroke-width="1px" opacity="0.25"></line><line x1="139.23399925231934" y1="0" x2="139.23399925231934" y2="176.89999961853027" fill="rgb(0, 0, 0)" stroke="rgb(66, 66, 66)" stroke-width="1px" opacity="0.25"></line><line x1="167.0807991027832" y1="0" x2="167.0807991027832" y2="176.89999961853027" fill="rgb(0, 0, 0)" stroke="rgb(66, 66, 66)" stroke-width="1px" opacity="0.25"></line><line x1="194.92759895324707" y1="0" x2="194.92759895324707" y2="176.89999961853027" fill="rgb(0, 0, 0)" stroke="rgb(66, 66, 66)" stroke-width="1px" opacity="0.25"></line><line x1="222.77439880371094" y1="0" x2="222.77439880371094" y2="176.89999961853027" fill="rgb(0, 0, 0)" stroke="rgb(66, 66, 66)" stroke-width="1px" opacity="0.25"></line><line x1="250.6211986541748" y1="0" x2="250.6211986541748" y2="176.89999961853027" fill="rgb(0, 0, 0)" stroke="rgb(66, 66, 66)" stroke-width="1px" opacity="0.25"></line><line x1="278.4679985046387" y1="0" x2="278.4679985046387" y2="176.89999961853027" fill="rgb(0, 0, 0)" stroke="rgb(66, 66, 66)" stroke-width="1px" opacity="0.25"></line></g><g><line x1="0" y1="176.89999961853027" x2="278.4679985046387" y2="176.89999961853027" fill="rgb(0, 0, 0)" stroke="rgb(66, 66, 66)" stroke-width="1px" opacity="0.25"></line><line x1="0" y1="157.24444410536023" x2="278.4679985046387" y2="157.24444410536023" fill="rgb(0, 0, 0)" stroke="rgb(66, 66, 66)" stroke-width="1px" opacity="0.25"></line><line x1="0" y1="137.5888885921902" x2="278.4679985046387" y2="137.5888885921902" fill="rgb(0, 0, 0)" stroke="rgb(66, 66, 66)" stroke-width="1px" opacity="0.25"></line><line x1="0" y1="117.9333330790202" x2="278.4679985046387" y2="117.9333330790202" fill="rgb(0, 0, 0)" stroke="rgb(66, 66, 66)" stroke-width="1px" opacity="0.25"></line><line x1="0" y1="98.27777756585013" x2="278.4679985046387" y2="98.27777756585013" fill="rgb(0, 0, 0)" stroke="rgb(66, 66, 66)" stroke-width="1px" opacity="0.25"></line><line x1="0" y1="78.62222205268012" x2="278.4679985046387" y2="78.62222205268012" fill="rgb(0, 0, 0)" stroke="rgb(66, 66, 66)" stroke-width="1px" opacity="0.25"></line><line x1="0" y1="58.9666665395101" x2="278.4679985046387" y2="58.9666665395101" fill="rgb(0, 0, 0)" stroke="rgb(66, 66, 66)" stroke-width="1px" opacity="0.25"></line><line x1="0" y1="39.311111026340036" x2="278.4679985046387" y2="39.311111026340036" fill="rgb(0, 0, 0)" stroke="rgb(66, 66, 66)" stroke-width="1px" opacity="0.25"></line><line x1="0" y1="19.65555551317" x2="278.4679985046387" y2="19.65555551317" fill="rgb(0, 0, 0)" stroke="rgb(66, 66, 66)" stroke-width="1px" opacity="0.25"></line><line x1="0" y1="0" x2="278.4679985046387" y2="0" fill="rgb(0, 0, 0)" stroke="rgb(66, 66, 66)" stroke-width="1px" opacity="0.25"></line></g></g></g><g><g><line x1="0" y1="294.8333326975504" x2="278.4679985046387" y2="294.8333326975504" fill="rgb(0, 0, 0)" stroke="rgb(153, 153, 153)" stroke-width="1.5px"></line></g></g><g><g><line x1="27.846799850463867" y1="0" x2="27.846799850463867" y2="176.89999961853027" fill="rgb(0, 0, 0)" stroke="rgb(153, 153, 153)" stroke-width="1.5px"></line></g></g><g><g><g><g><g><path style="fill: none;" stroke="rgb(255, 112, 67)" stroke-width="2px" d="M37.59317979812622,-7.097652486124455L38.98551979064942,11.627215932913485L40.3778597831726,18.148540289907338L41.04618297958374,8.862779104259182L42.43852297210694,12.75267603123466L43.83086296463013,21.5947602066782L45.22320295715332,33.922535753185976L46.61554294967651,40.26210429895438L48.00788294219971,45.51499855583966L49.4002229347229,39.15393666981665L50.792562927246095,37.03837962111142L52.18490291976929,41.81919522062069L53.577242912292476,47.85991807292312L54.24556610870361,54.55469096436674L55.63790610122681,57.78258463534368L57.03024609375,57.35385532503512L58.42258608627319,53.92746414974475L59.81492607879638,58.1068766963333L61.20726607131958,61.699801161935156L62.59960606384277,60.26330359834603L63.99194605636597,65.41519181818067L65.38428604888917,64.46324766298049L66.77662604141236,64.89789137197447L67.44494923782348,87.5940361167834L68.83728923034668,85.80939390618819L70.22962922286986,74.91624657810517L71.62196921539307,73.02898939545467L73.01430920791626,74.56045760943515L74.40664920043945,72.40288005167838L75.79898919296265,73.72817553799723L77.19132918548584,75.50993138661305L78.58366917800903,73.47750187412038L79.97600917053224,78.25429972797289L80.64433236694336,97.66549318597697L82.03667235946655,97.04245375889356L83.42901235198974,93.35848596935698L84.82135234451293,88.29246294020565L86.21369233703614,90.41279656761525L87.60603232955933,93.38006595076729L88.99837232208252,96.4589932072442L90.39071231460571,96.77254591922217L91.78305230712891,102.79208840883118L93.1753922996521,105.30915285452369L93.84371549606324,66.03218450293328L95.23605548858643,82.14286810021882L96.6283954811096,90.60218822442441L98.02073547363281,95.80454335107564L99.413075466156,103.55426642526677L100.80541545867919,104.6433823702385L102.1977554512024,107.79260203788328L103.59009544372559,109.69158248925973L104.98243543624878,112.32700322997331L106.37477542877197,114.23247971195877L107.0430986251831,145.9687600181605L108.43543861770631,133.73503424847715L109.82777861022949,128.79257698127537L111.22011860275268,122.08733483917813L112.61245859527587,130.28519047048528L114.00479858779907,125.99572795828247L115.39713858032226,126.691312913388L116.78947857284545,123.19449146737009L118.18181856536866,124.7764869926643L119.57415855789185,128.5453186929624L120.24248175430299,111.66779854335333L121.63482174682618,118.53871800312047L123.02716173934937,122.04853668375883L124.41950173187256,126.00447723152641L125.81184172439575,127.89965748366957L127.20418171691894,129.31601339181464L128.59652170944213,132.63949308604342L129.98886170196533,133.41556019121566L131.38120169448854,130.37787153915156L132.77354168701171,125.13564342433959L133.44186488342285,87.89086979618608L134.83420487594606,108.84299557025227L136.22654486846923,115.1308362499216L137.61888486099244,117.70218542155826L139.0112248535156,120.36822452177938L140.40356484603882,124.17014513156306L141.795904838562,129.82144319848842L143.1882448310852,131.6345785316775L144.5805848236084,135.29598400245686L145.97292481613158,130.29076456118887L146.64124801254272,145.93944529040348L148.0335880050659,142.1926567158547L149.4259279975891,141.82337133628565L150.8182679901123,135.07923186363527L152.21060798263548,137.05811119841272L153.60294797515868,140.2203532597061L154.9952879676819,140.27802334218697L156.38762796020507,136.99006855548006L157.77996795272827,138.76265181790026L159.17230794525148,135.62540075626538L159.84063114166258,154.65243104823625L161.2329711341858,146.41487272775953L162.62531112670897,141.4376184836243L164.01765111923217,144.385457969214L165.40999111175537,143.6971492708021L166.80233110427855,144.84534710694172L168.19467109680176,142.2421578793158L169.58701108932496,141.23965367513392L170.97935108184814,139.88790016239483L172.37169107437134,135.23169823471505L173.04001427078245,129.89653604368104L174.43235426330565,137.68742967890935L175.82469425582886,140.6293070735652L177.21703424835204,142.27000186740594L178.60937424087524,144.21321955751645L180.00171423339842,143.6637309258798L181.39405422592162,145.92373543675404L182.78639421844483,150.5530366381884L184.178734210968,146.0760042036718L185.5710742034912,144.099335655269L186.23939739990232,171.0824161202966L187.63173739242552,157.77082931885047L189.02407738494873,152.8228925411076L190.4164173774719,146.95799306434438L191.8087573699951,141.5371272556428L193.2010973625183,144.41170341016038L194.5934373550415,146.029432735057L195.9857773475647,142.46933976444197L197.3781173400879,142.03797171615327L198.77045733261107,142.04330306246072L199.4387805290222,149.92856284464145L200.8311205215454,147.7713769708177L202.2234605140686,147.36031805869308L203.6158005065918,147.14838438983148L205.00814049911497,150.98870269698799L206.40048049163818,149.55599036958404L207.79282048416138,147.8142702077522L209.18516047668456,150.269362802645L210.57750046920776,151.0337168300166L211.96984046173097,149.47987206876925L212.63816365814208,149.80068007520444L214.03050365066528,154.25268460585232L215.42284364318846,153.44001220279577L216.81518363571166,154.14778317105322L218.20752362823487,152.02209498549735L219.59986362075804,149.26006896600606L220.99220361328125,151.11509200156289L222.38454360580442,150.81382497757608L223.77688359832763,149.02713973977993L225.16922359085083,146.18620995421028L225.83754678726197,159.87002175065965L227.22988677978515,155.5040462574125L228.62222677230832,153.9183940722533L230.01456676483153,151.13791853099687L231.40690675735473,151.2864804670918L232.7992467498779,149.86632307244517L234.1915867424011,150.4629417000383L235.58392673492432,152.413458657342L236.9762667274475,152.98241756525928L238.3686067199707,152.1192861709774L239.03692991638184,136.30424087088005L240.429269908905,140.18784287730463L241.82160990142822,141.26202474789744L243.2139498939514,144.456474589922L244.6062898864746,147.22564945200747L245.9986298789978,150.66060110084302L247.39096987152098,147.75201525265268L248.78330986404418,147.67687323065365L250.1756498565674,153.09034914465767L251.56798984909057,153.63085439409062" fill="none"></path></g></g></g></g><g opacity="0.2"><g><g><g><path style="fill: none;" stroke="rgb(255, 112, 67)" stroke-width="2px" d="M33.416159820556636,-13.675337480486801L34.808499813079834,6.247198359607731L36.20083980560303,13.278125105146163L37.59317979812622,22.667260525089922L38.98551979064942,39.24275973255272L40.3778597831726,27.831946938817374L41.04618297958374,-4.981641503691266L42.43852297210694,18.566352774399185L43.83086296463013,34.82901553087368L45.22320295715332,52.390047677301006L46.61554294967651,49.764005192759676L48.00788294219971,53.39063519315983L49.4002229347229,29.615035628988444L50.792562927246095,33.86558118775887L52.18490291976929,48.989690310746944L53.577242912292476,56.9204502053808L54.24556610870361,64.59648314427592L55.63790610122681,62.624318926592935L57.03024609375,56.710769824084544L58.42258608627319,48.78791797567922L59.81492607879638,64.37596581074058L61.20726607131958,67.0891725381563L62.59960606384277,58.108560928565964L63.99194605636597,73.14301623857068L65.38428604888917,63.03533230705532L66.77662604141236,65.54985669524444L67.44494923782348,121.63824570770828L68.83728923034668,83.13243094537947L70.22962922286986,58.57652688640377L71.62196921539307,70.19810375665926L73.01430920791626,76.85765986458827L74.40664920043945,69.16651377067865L75.79898919296265,75.71611874697108L77.19132918548584,78.1825651429968L78.58366917800903,70.42885761670152L79.97600917053224,85.41949649278823L80.64433236694336,126.78228333406125L82.03667235946655,96.10789461901803L83.42901235198974,87.83253428771133L84.82135234451293,80.69342839867272L86.21369233703614,93.59329700817864L87.60603232955933,97.83097002503264L88.99837232208252,101.07738409167149L90.39071231460571,97.24287498717156L91.78305230712891,111.8214021430419L93.1753922996521,109.08474952301162L93.84371549606324,7.116731976023888L95.23605548858643,106.30889349602995L96.6283954811096,103.29116841069592L98.02073547363281,103.60807604103891L99.413075466156,115.17885103654119L100.80541545867919,106.27705628769513L102.1977554512024,112.51643153934864L103.59009544372559,112.54005316632384L104.98243543624878,116.28013434104318L106.37477542877197,117.09069443493664L107.0430986251831,193.5731804774608L108.43543861770631,115.3844455939527L109.82777861022949,121.37889108047285L111.22011860275268,112.02947162603233L112.61245859527587,142.58197391744596L114.00479858779907,119.5615341899782L115.39713858032226,127.7346903460463L116.78947857284545,117.94925929834321L118.18181856536866,127.14948028060562L119.57415855789185,134.19856624340954L120.24248175430299,86.35151831893974L121.63482174682618,128.8450971927712L123.02716173934937,127.31326470471635L124.41950173187256,131.93838805317776L125.81184172439575,130.7424278618843L127.20418171691894,131.4405472540322L128.59652170944213,137.6247126273866L129.98886170196533,134.57966084897402L131.38120169448854,125.82133856105543L132.77354168701171,117.27230125212162L133.44186488342285,32.02370935395581L134.83420487594606,140.27118423135164L136.22654486846923,124.56259726942551L137.61888486099244,121.55920917901321L139.0112248535156,124.36728317211109L140.40356484603882,129.87302604623864L141.795904838562,138.29839029887637L143.1882448310852,134.35428153146114L144.5805848236084,140.78809220862595L145.97292481613158,122.78293539928683L146.64124801254272,169.4124663842254L148.0335880050659,136.5724738540315L149.4259279975891,141.26944326693206L150.8182679901123,124.96302265465974L152.21060798263548,140.0264302005789L153.60294797515868,144.96371635164616L154.9952879676819,140.36452846590828L156.38762796020507,132.05813637541965L157.77996795272827,141.42152671153056L159.17230794525148,130.91952416381304L159.84063114166258,183.19297648619252L161.2329711341858,134.0585352470445L162.62531112670897,133.97173711742144L164.01765111923217,148.8072171975985L165.40999111175537,142.66468622318428L166.80233110427855,146.56764386115105L168.19467109680176,138.33737403787697L169.58701108932496,139.735897368861L170.97935108184814,137.8602698932862L172.37169107437134,128.24739534319548L173.04001427078245,121.89379275712994L174.43235426330565,149.37377013175188L175.82469425582886,145.04212316554896L177.21703424835204,144.731044058167L178.60937424087524,147.12804609268227L180.00171423339842,142.83949797842476L181.39405422592162,149.3137422030654L182.78639421844483,157.4969884403399L184.178734210968,139.3604555518969L185.5710742034912,141.13433283266474L186.23939739990232,211.55703681783808L187.63173739242552,137.80344911668126L189.02407738494873,145.40098737449327L190.4164173774719,138.16064384919954L191.8087573699951,133.40582854259037L193.2010973625183,148.72356764193682L194.5934373550415,148.45602672240187L195.9857773475647,137.12920030851944L197.3781173400879,141.39091964372017L198.77045733261107,142.05130008192197L199.4387805290222,161.7564525179125L200.8311205215454,144.5355981600821L202.2234605140686,146.74372969050614L203.6158005065918,146.83048388653904L205.00814049911497,156.74918015772278L206.40048049163818,147.40692187847807L207.79282048416138,145.20168996500448L209.18516047668456,153.95200169498418L210.57750046920776,152.18024787107402L211.96984046173097,147.1491049268982L212.63816365814208,150.28189208485722L214.03050365066528,160.93069140182422L215.42284364318846,152.221003598211L216.81518363571166,155.20943962343938L218.20752362823487,148.83356270716354L219.59986362075804,145.11702993676914L220.99220361328125,153.89762655489807L222.38454360580442,150.36192444159587L223.77688359832763,146.34711188308566L225.16922359085083,141.9248152758558L225.83754678726197,180.39573944533376L227.22988677978515,148.95508301754182L228.62222677230832,151.5399157945145L230.01456676483153,146.96720521911215L231.40690675735473,151.5093233712342L232.7992467498779,147.73608698047528L234.1915867424011,151.35786964142795L235.58392673492432,155.33923409329753L236.9762667274475,153.8358559271353L238.3686067199707,150.82458907955456L239.03692991638184,112.58167292073395L240.429269908905,146.0132458869415L241.82160990142822,142.87329755378667L243.2139498939514,149.24814935295882L244.6062898864746,151.37941174513566L245.9986298789978,155.81302857409636L247.39096987152098,143.38913648036714L248.78330986404418,147.56416019765518L250.1756498565674,161.21056301566364L251.56798984909057,154.44161226824008" fill="none"></path></g></g></g></g></g></g><g transform="translate(51, 176)" clip-path="url(#clip_1)"><clipPath id="clip_1"><rect width="278" height="23"></rect></clipPath><g><g><line x1="0" y1="0" x2="0" y2="5" style="visibility: inherit;" fill="rgb(0, 0, 0)" stroke="rgb(204, 204, 204)" stroke-width="1px"></line><line x1="27.846799850463867" y1="0" x2="27.846799850463867" y2="5" style="visibility: inherit;" fill="rgb(0, 0, 0)" stroke="rgb(204, 204, 204)" stroke-width="1px"></line><line x1="55.693599700927734" y1="0" x2="55.693599700927734" y2="5" style="visibility: inherit;" fill="rgb(0, 0, 0)" stroke="rgb(204, 204, 204)" stroke-width="1px"></line><line x1="83.5403995513916" y1="0" x2="83.5403995513916" y2="5" style="visibility: inherit;" fill="rgb(0, 0, 0)" stroke="rgb(204, 204, 204)" stroke-width="1px"></line><line x1="111.38719940185547" y1="0" x2="111.38719940185547" y2="5" style="visibility: inherit;" fill="rgb(0, 0, 0)" stroke="rgb(204, 204, 204)" stroke-width="1px"></line><line x1="139.23399925231934" y1="0" x2="139.23399925231934" y2="5" style="visibility: inherit;" fill="rgb(0, 0, 0)" stroke="rgb(204, 204, 204)" stroke-width="1px"></line><line x1="167.0807991027832" y1="0" x2="167.0807991027832" y2="5" style="visibility: inherit;" fill="rgb(0, 0, 0)" stroke="rgb(204, 204, 204)" stroke-width="1px"></line><line x1="194.92759895324707" y1="0" x2="194.92759895324707" y2="5" style="visibility: inherit;" fill="rgb(0, 0, 0)" stroke="rgb(204, 204, 204)" stroke-width="1px"></line><line x1="222.77439880371094" y1="0" x2="222.77439880371094" y2="5" style="visibility: inherit;" fill="rgb(0, 0, 0)" stroke="rgb(204, 204, 204)" stroke-width="1px"></line><line x1="250.6211986541748" y1="0" x2="250.6211986541748" y2="5" style="visibility: inherit;" fill="rgb(0, 0, 0)" stroke="rgb(204, 204, 204)" stroke-width="1px"></line><line x1="278.4679985046387" y1="0" x2="278.4679985046387" y2="5" style="visibility: inherit;" fill="rgb(0, 0, 0)" stroke="rgb(204, 204, 204)" stroke-width="1px"></line></g><g transform="translate(0, 8)"><text style="text-anchor: middle; visibility: hidden; font-family: Roboto, sans-serif; font-size: 12px; font-weight: 200;" x="0" y="0" dx="0em" dy="0.95em" fill="rgb(33, 33, 33)" stroke="none" stroke-width="1px">-1k</text><text style="text-anchor: middle; visibility: inherit; font-family: Roboto, sans-serif; font-size: 12px; font-weight: 200;" x="27.846799850463867" y="0" dx="0em" dy="0.95em" fill="rgb(33, 33, 33)" stroke="none" stroke-width="1px">0</text><text style="text-anchor: middle; visibility: inherit; font-family: Roboto, sans-serif; font-size: 12px; font-weight: 200;" x="55.693599700927734" y="0" dx="0em" dy="0.95em" fill="rgb(33, 33, 33)" stroke="none" stroke-width="1px">1k</text><text style="text-anchor: middle; visibility: inherit; font-family: Roboto, sans-serif; font-size: 12px; font-weight: 200;" x="83.5403995513916" y="0" dx="0em" dy="0.95em" fill="rgb(33, 33, 33)" stroke="none" stroke-width="1px">2k</text><text style="text-anchor: middle; visibility: inherit; font-family: Roboto, sans-serif; font-size: 12px; font-weight: 200;" x="111.38719940185547" y="0" dx="0em" dy="0.95em" fill="rgb(33, 33, 33)" stroke="none" stroke-width="1px">3k</text><text style="text-anchor: middle; visibility: inherit; font-family: Roboto, sans-serif; font-size: 12px; font-weight: 200;" x="139.23399925231934" y="0" dx="0em" dy="0.95em" fill="rgb(33, 33, 33)" stroke="none" stroke-width="1px">4k</text><text style="text-anchor: middle; visibility: inherit; font-family: Roboto, sans-serif; font-size: 12px; font-weight: 200;" x="167.0807991027832" y="0" dx="0em" dy="0.95em" fill="rgb(33, 33, 33)" stroke="none" stroke-width="1px">5k</text><text style="text-anchor: middle; visibility: inherit; font-family: Roboto, sans-serif; font-size: 12px; font-weight: 200;" x="194.92759895324707" y="0" dx="0em" dy="0.95em" fill="rgb(33, 33, 33)" stroke="none" stroke-width="1px">6k</text><text style="text-anchor: middle; visibility: inherit; font-family: Roboto, sans-serif; font-size: 12px; font-weight: 200;" x="222.77439880371094" y="0" dx="0em" dy="0.95em" fill="rgb(33, 33, 33)" stroke="none" stroke-width="1px">7k</text><text style="text-anchor: middle; visibility: inherit; font-family: Roboto, sans-serif; font-size: 12px; font-weight: 200;" x="250.6211986541748" y="0" dx="0em" dy="0.95em" fill="rgb(33, 33, 33)" stroke="none" stroke-width="1px">8k</text><text style="text-anchor: middle; visibility: hidden; font-family: Roboto, sans-serif; font-size: 12px; font-weight: 200;" x="278.4679985046387" y="0" dx="0em" dy="0.95em" fill="rgb(33, 33, 33)" stroke="none" stroke-width="1px">9k</text></g><line x1="0" y1="0" x2="278.4679985046387" y2="0" fill="rgb(0, 0, 0)" stroke="rgb(204, 204, 204)" stroke-width="1px"></line></g></g></g></g></svg>