<svg viewBox="0 0 330 200" xmlns="http://www.w3.org/2000/svg"><g><g><g><g><g><line x1="51.53200149536133" y1="176.89999961853027" x2="46.53200149536133" y2="176.89999961853027" style="visibility: inherit;" fill="rgb(0, 0, 0)" stroke="rgb(204, 204, 204)" stroke-width="1px"></line><line x1="51.53200149536133" y1="160.81818147139114" x2="46.53200149536133" y2="160.81818147139114" style="visibility: inherit;" fill="rgb(0, 0, 0)" stroke="rgb(204, 204, 204)" stroke-width="1px"></line><line x1="51.53200149536133" y1="144.73636332425204" x2="46.53200149536133" y2="144.73636332425204" style="visibility: inherit;" fill="rgb(0, 0, 0)" stroke="rgb(204, 204, 204)" stroke-width="1px"></line><line x1="51.53200149536133" y1="128.65454517711294" x2="46.53200149536133" y2="128.65454517711294" style="visibility: inherit;" fill="rgb(0, 0, 0)" stroke="rgb(204, 204, 204)" stroke-width="1px"></line><line x1="51.53200149536133" y1="112.5727270299738" x2="46.53200149536133" y2="112.5727270299738" style="visibility: inherit;" fill="rgb(0, 0, 0)" stroke="rgb(204, 204, 204)" stroke-width="1px"></line><line x1="51.53200149536133" y1="96.49090888283469" x2="46.53200149536133" y2="96.49090888283469" style="visibility: inherit;" fill="rgb(0, 0, 0)" stroke="rgb(204, 204, 204)" stroke-width="1px"></line><line x1="51.53200149536133" y1="80.40909073569559" x2="46.53200149536133" y2="80.40909073569559" style="visibility: inherit;" fill="rgb(0, 0, 0)" stroke="rgb(204, 204, 204)" stroke-width="1px"></line><line x1="51.53200149536133" y1="64.32727258855648" x2="46.53200149536133" y2="64.32727258855648" style="visibility: inherit;" fill="rgb(0, 0, 0)" stroke="rgb(204, 204, 204)" stroke-width="1px"></line><line x1="51.53200149536133" y1="48.245454441417344" x2="46.53200149536133" y2="48.245454441417344" style="visibility: inherit;" fill="rgb(0, 0, 0)" stroke="rgb(204, 204, 204)" stroke-width="1px"></line><line x1="51.53200149536133" y1="32.16363629427824" x2="46.53200149536133" y2="32.16363629427824" style="visibility: inherit;" fill="rgb(0, 0, 0)" stroke="rgb(204, 204, 204)" stroke-width="1px"></line><line x1="51.53200149536133" y1="16.08181814713912" x2="46.53200149536133" y2="16.08181814713912" style="visibility: inherit;" fill="rgb(0, 0, 0)" stroke="rgb(204, 204, 204)" stroke-width="1px"></line><line x1="51.53200149536133" y1="0" x2="46.53200149536133" y2="0" style="visibility: inherit;" fill="rgb(0, 0, 0)" stroke="rgb(204, 204, 204)" stroke-width="1px"></line></g><g transform="translate(41.53200149536133, 0)"><text style="text-anchor: end; visibility: hidden; font-family: Roboto, sans-serif; font-size: 12px; font-weight: 200;" x="0" y="176.89999961853027" dx="0em" dy="0.3em" fill="rgb(33, 33, 33)" stroke="none" stroke-width="1px">0</text><text style="text-anchor: end; visibility: inherit; font-family: Roboto, sans-serif; font-size: 12px; font-weight: 200;" x="0" y="160.81818147139114" dx="0em" dy="0.3em" fill="rgb(33, 33, 33)" stroke="none" stroke-width="1px">0.05</text><text style="text-anchor: end; visibility: hidden; font-family: Roboto, sans-serif; font-size: 12px; font-weight: 200;" x="0" y="144.73636332425204" dx="0em" dy="0.3em" fill="rgb(33, 33, 33)" stroke="none" stroke-width="1px">0.1</text><text style="text-anchor: end; visibility: inherit; font-family: Roboto, sans-serif; font-size: 12px; font-weight: 200;" x="0" y="128.65454517711294" dx="0em" dy="0.3em" fill="rgb(33, 33, 33)" stroke="none" stroke-width="1px">0.15</text><text style="text-anchor: end; visibility: hidden; font-family: Roboto, sans-serif; font-size: 12px; font-weight: 200;" x="0" y="112.5727270299738" dx="0em" dy="0.3em" fill="rgb(33, 33, 33)" stroke="none" stroke-width="1px">0.2</text><text style="text-anchor: end; visibility: inherit; font-family: Roboto, sans-serif; font-size: 12px; font-weight: 200;" x="0" y="96.49090888283469" dx="0em" dy="0.3em" fill="rgb(33, 33, 33)" stroke="none" stroke-width="1px">0.25</text><text style="text-anchor: end; visibility: hidden; font-family: Roboto, sans-serif; font-size: 12px; font-weight: 200;" x="0" y="80.40909073569559" dx="0em" dy="0.3em" fill="rgb(33, 33, 33)" stroke="none" stroke-width="1px">0.3</text><text style="text-anchor: end; visibility: inherit; font-family: Roboto, sans-serif; font-size: 12px; font-weight: 200;" x="0" y="64.32727258855648" dx="0em" dy="0.3em" fill="rgb(33, 33, 33)" stroke="none" stroke-width="1px">0.35</text><text style="text-anchor: end; visibility: hidden; font-family: Roboto, sans-serif; font-size: 12px; font-weight: 200;" x="0" y="48.245454441417344" dx="0em" dy="0.3em" fill="rgb(33, 33, 33)" stroke="none" stroke-width="1px">0.4</text><text style="text-anchor: end; visibility: inherit; font-family: Roboto, sans-serif; font-size: 12px; font-weight: 200;" x="0" y="32.16363629427824" dx="0em" dy="0.3em" fill="rgb(33, 33, 33)" stroke="none" stroke-width="1px">0.45</text><text style="text-anchor: end; visibility: hidden; font-family: Roboto, sans-serif; font-size: 12px; font-weight: 200;" x="0" y="16.08181814713912" dx="0em" dy="0.3em" fill="rgb(33, 33, 33)" stroke="none" stroke-width="1px">0.5</text><text style="text-anchor: end; visibility: hidden; font-family: Roboto, sans-serif; font-size: 12px; font-weight: 200;" x="0" y="0" dx="0em" dy="0.3em" fill="rgb(33, 33, 33)" stroke="none" stroke-width="1px">0.55</text></g><line x1="51.53200149536133" y1="0" x2="51.53200149536133" y2="176.89999961853027" fill="rgb(0, 0, 0)" stroke="rgb(204, 204, 204)" stroke-width="1px"></line></g></g><g transform="translate(51, 0)" clip-path="url(#clip_0)"><clipPath id="clip_0"><rect width="278" height="176"></rect></clipPath><g><g><g><line x1="0" y1="0" x2="0" y2="176.89999961853027" fill="rgb(0, 0, 0)" stroke="rgb(66, 66, 66)" stroke-width="1px" opacity="0.25"></line><line x1="25.31527259133079" y1="0" x2="25.31527259133079" y2="176.89999961853027" fill="rgb(0, 0, 0)" stroke="rgb(66, 66, 66)" stroke-width="1px" opacity="0.25"></line><line x1="50.63054518266158" y1="0" x2="50.63054518266158" y2="176.89999961853027" fill="rgb(0, 0, 0)" stroke="rgb(66, 66, 66)" stroke-width="1px" opacity="0.25"></line><line x1="75.94581777399236" y1="0" x2="75.94581777399236" y2="176.89999961853027" fill="rgb(0, 0, 0)" stroke="rgb(66, 66, 66)" stroke-width="1px" opacity="0.25"></line><line x1="101.26109036532316" y1="0" x2="101.26109036532316" y2="176.89999961853027" fill="rgb(0, 0, 0)" stroke="rgb(66, 66, 66)" stroke-width="1px" opacity="0.25"></line><line x1="126.57636295665394" y1="0" x2="126.57636295665394" y2="176.89999961853027" fill="rgb(0, 0, 0)" stroke="rgb(66, 66, 66)" stroke-width="1px" opacity="0.25"></line><line x1="151.89163554798472" y1="0" x2="151.89163554798472" y2="176.89999961853027" fill="rgb(0, 0, 0)" stroke="rgb(66, 66, 66)" stroke-width="1px" opacity="0.25"></line><line x1="177.20690813931552" y1="0" x2="177.20690813931552" y2="176.89999961853027" fill="rgb(0, 0, 0)" stroke="rgb(66, 66, 66)" stroke-width="1px" opacity="0.25"></line><line x1="202.5221807306463" y1="0" x2="202.5221807306463" y2="176.89999961853027" fill="rgb(0, 0, 0)" stroke="rgb(66, 66, 66)" stroke-width="1px" opacity="0.25"></line><line x1="227.8374533219771" y1="0" x2="227.8374533219771" y2="176.89999961853027" fill="rgb(0, 0, 0)" stroke="rgb(66, 66, 66)" stroke-width="1px" opacity="0.25"></line><line x1="253.15272591330788" y1="0" x2="253.15272591330788" y2="176.89999961853027" fill="rgb(0, 0, 0)" stroke="rgb(66, 66, 66)" stroke-width="1px" opacity="0.25"></line><line x1="278.4679985046387" y1="0" x2="278.4679985046387" y2="176.89999961853027" fill="rgb(0, 0, 0)" stroke="rgb(66, 66, 66)" stroke-width="1px" opacity="0.25"></line></g><g><line x1="0" y1="176.89999961853027" x2="278.4679985046387" y2="176.89999961853027" fill="rgb(0, 0, 0)" stroke="rgb(66, 66, 66)" stroke-width="1px" opacity="0.25"></line><line x1="0" y1="160.81818147139114" x2="278.4679985046387" y2="160.81818147139114" fill="rgb(0, 0, 0)" stroke="rgb(66, 66, 66)" stroke-width="1px" opacity="0.25"></line><line x1="0" y1="144.73636332425204" x2="278.4679985046387" y2="144.73636332425204" fill="rgb(0, 0, 0)" stroke="rgb(66, 66, 66)" stroke-width="1px" opacity="0.25"></line><line x1="0" y1="128.65454517711294" x2="278.4679985046387" y2="128.65454517711294" fill="rgb(0, 0, 0)" stroke="rgb(66, 66, 66)" stroke-width="1px" opacity="0.25"></line><line x1="0" y1="112.5727270299738" x2="278.4679985046387" y2="112.5727270299738" fill="rgb(0, 0, 0)" stroke="rgb(66, 66, 66)" stroke-width="1px" opacity="0.25"></line><line x1="0" y1="96.49090888283469" x2="278.4679985046387" y2="96.49090888283469" fill="rgb(0, 0, 0)" stroke="rgb(66, 66, 66)" stroke-width="1px" opacity="0.25"></line><line x1="0" y1="80.40909073569559" x2="278.4679985046387" y2="80.40909073569559" fill="rgb(0, 0, 0)" stroke="rgb(66, 66, 66)" stroke-width="1px" opacity="0.25"></line><line x1="0" y1="64.32727258855648" x2="278.4679985046387" y2="64.32727258855648" fill="rgb(0, 0, 0)" stroke="rgb(66, 66, 66)" stroke-width="1px" opacity="0.25"></line><line x1="0" y1="48.245454441417344" x2="278.4679985046387" y2="48.245454441417344" fill="rgb(0, 0, 0)" stroke="rgb(66, 66, 66)" stroke-width="1px" opacity="0.25"></line><line x1="0" y1="32.16363629427824" x2="278.4679985046387" y2="32.16363629427824" fill="rgb(0, 0, 0)" stroke="rgb(66, 66, 66)" stroke-width="1px" opacity="0.25"></line><line x1="0" y1="16.08181814713912" x2="278.4679985046387" y2="16.08181814713912" fill="rgb(0, 0, 0)" stroke="rgb(66, 66, 66)" stroke-width="1px" opacity="0.25"></line><line x1="0" y1="0" x2="278.4679985046387" y2="0" fill="rgb(0, 0, 0)" stroke="rgb(66, 66, 66)" stroke-width="1px" opacity="0.25"></line></g></g></g><g><g><line x1="0" y1="176.89999961853027" x2="278.4679985046387" y2="176.89999961853027" fill="rgb(0, 0, 0)" stroke="rgb(153, 153, 153)" stroke-width="1.5px"></line></g></g><g><g><line x1="25.31527259133079" y1="0" x2="25.31527259133079" y2="176.89999961853027" fill="rgb(0, 0, 0)" stroke="rgb(153, 153, 153)" stroke-width="1.5px"></line></g></g><g><g><g><g><g><path style="fill: none;" stroke="rgb(255, 112, 67)" stroke-width="2px" d="M25.31527259133079,142.34638352828205L26.581036220897328,147.5784936912029L27.846799850463867,147.1971954682556L29.112563480030406,148.23856820458454L30.378327109596945,150.06116844362455L31.644090739163484,151.65616307089277L32.909854368730024,154.2831408396806L34.175617998296566,156.55317330324152L35.4413816278631,157.93105661835492L36.70714525742964,157.54201900038396L37.314711799621584,162.02056619005583L38.58047542918813,155.79979379720893L39.84623905875466,154.97242013478282L41.112002688321205,159.46305101014465L42.37776631788773,159.18013545290336L43.643529947454276,159.62231832118945L44.90929357702082,158.8994502921741L46.175057206587354,156.20879567352927L47.4408208361539,158.02777243899428L48.70658446572043,159.5116424670341L49.31415100791238,165.5792032405131L50.579914637478915,165.67289535060726L51.84567826704545,162.41252956542505L53.11144189661199,159.74727580668352L54.37720552617853,155.156959760774L55.64296915574507,151.1776273660543L56.908732785311614,144.93035443103997L58.17449641487815,145.48169319942687L59.44026004444469,140.45087535024973L60.70602367401123,139.40049479707312L61.31359021620317,126.62043096337189L62.57935384576971,126.94026874444161L63.845117475336245,128.25465007613096L65.11088110490279,127.02267806914075L66.37664473446932,122.28381208342175L67.64240836403587,116.30791889773246L68.90817199360241,116.31704345352694L70.17393562316894,106.5448180835049L71.43969925273548,104.99871825839043L72.70546288230203,104.14513902559202L73.31302942449396,113.59974850406513L74.57879305406051,103.86352410747678L75.84455668362705,99.49887064288023L77.11032031319357,91.92277073103156L78.37608394276012,90.8112694843789L79.64184757232665,85.53438996190036L80.9076112018932,80.97598984204829L82.17337483145974,80.32111675808143L83.43913846102627,73.48944058023817L84.70490209059281,72.86558121611895L85.31246863278474,71.94097293786137L86.57823226235129,64.4004680677649L87.84399589191783,64.99483162966838L89.10975952148438,64.2190750599478L90.37552315105091,61.1202896515694L91.64128678061746,58.55554783307877L92.90705041018398,56.348607991373946L94.17281403975053,52.70537550127444L95.43857766931707,50.25967250470055L96.70434129888362,49.370832125366775L97.31190784107555,44.35058873729829L98.57767147064209,45.4674358946419L99.84343510020864,44.296363151040744L101.10919872977516,45.905012323774194L102.37496235934171,40.87938424363726L103.64072598890824,39.860734430846584L104.9064896184748,43.02435311742475L106.17225324804133,43.68552569163192L107.43801687760786,42.96075517192696L108.7037805071744,38.59457590330498L109.31134704936635,36.18610999009018L110.57711067893288,35.602311573002105L111.84287430849942,37.59411783583064L113.10863793806597,35.02455749469426L114.3744015676325,36.035550115191995L115.64016519719905,34.78056668296907L116.90592882676557,35.531922819860426L118.17169245633212,32.19018706476121L119.43745608589866,34.430073635249514L120.70321971546521,35.77510599415707L121.31078625765714,43.41845020790887L122.57654988722368,39.65796541950336L123.84231351679023,36.07130920146663L125.10807714635675,30.655111708173138L126.3738407759233,35.999543448607625L127.63960440548983,31.573214407542398L128.90536803505637,29.379745329199103L130.17113166462292,24.388586794219393L131.43689529418944,26.233750162235097L132.702658923756,25.774882490606736L133.31022546594792,11.829941312158528L134.57598909551447,18.18632085601045L135.84175272508102,23.49039640958562L137.10751635464754,22.983286698576915L138.3732799842141,24.94247432466301L139.63904361378064,24.466924879151623L140.90480724334716,26.533914016021406L142.17057087291371,27.56114812668893L143.43633450248024,24.404071834973124L144.70209813204679,27.203041573889696L145.30966467423875,10.815944475527195L146.57542830380527,16.867371859959643L147.8411919333718,22.056552414022484L149.10695556293834,24.74500469950374L150.3727191925049,24.328060474358693L151.63848282207144,28.234573918215574L152.90424645163796,27.27337493131111L154.17001008120448,25.975851982980064L155.43577371077106,22.60890144478916L156.70153734033758,24.801003227978416L157.3091038825295,50.09158553690101L158.57486751209606,39.014676061574804L159.84063114166258,32.948181537970235L161.10639477122916,25.969896877855057L162.37215840079568,25.258137605757675L163.6379220303622,23.63803488787103L164.90368565992875,26.796780025925322L166.1694492894953,22.886098687252765L167.43521291906183,25.8336025066159L168.70097654862838,24.22821595529721L169.3085430908203,60.256121167547974L170.57430672038683,42.4430927420088L171.8400703499534,35.973210912439775L173.10583397951993,27.54384274565337L174.37159760908648,23.383916414013683L175.637361238653,24.61854164346622L176.90312486821955,19.650516421237842L178.1688884977861,21.228627632824935L179.43465212735262,20.71830120719733L180.70041575691917,21.99242630490317L181.3079822991111,10.267717244964595L182.57374592867765,12.531389197036663L183.8395095582442,19.088317036582684L185.10527318781072,18.43102184088605L186.37103681737725,17.208774848305012L187.63680044694382,15.891040248938715L188.90256407651034,16.140243345448685L190.1683277060769,15.202292862254899L191.43409133564342,16.208298736478476L192.69985496520994,17.2665583646402L193.30742150740193,22.6086823246836L194.57318513696845,20.14749362393962L195.83894876653497,17.637876457023413L197.10471239610152,14.522346183697904L198.37047602566804,17.075479699192517L199.63623965523462,17.794178769739073L200.90200328480114,18.90918636059957L202.16776691436766,14.972253392103054L203.4335305439342,15.170475507831796L204.69929417350076,14.32577356445474L205.3068607156927,1.402595155049254L206.57262434525924,7.673271644268215L207.83838797482576,12.910603884952524L209.10415160439229,14.181823377444609L210.36991523395886,17.20708831661544L211.63567886352538,18.17807053435617L212.90144249309193,15.882165545656717L214.16720612265846,15.731376196468844L215.43296975222503,20.060770012793686L216.69873338179156,17.998256965939397L217.3062999239835,6.8307353075540815L218.57206355355,14.110839027456722L219.83782718311656,17.827308923801947L221.1035908126831,13.795486748840595L222.36935444224966,16.10996395735171L223.63511807181618,14.545645872273864L224.9008817013827,14.050235351588316L226.16664533094928,13.901940205182136L227.4324089605158,14.330358304814403L228.69817259008235,12.386330546348807L229.30573913227428,30.870248922366265L230.5715027618408,25.367214603794302L231.83726639140738,22.832150506560147L233.1030300209739,22.565383776024586L234.36879365054043,20.636057034271555L235.63455728010697,16.842108169740033L236.90032090967352,18.329846161262115L238.16608453924007,20.10012680226991L239.4318481688066,17.259424191272874L240.69761179837312,14.149690089558122L241.30517834056508,6.821028806929804L242.57094197013163,12.27183223910282L243.83670559969815,9.938226056082977L245.1024692292647,11.761194113009227L246.36823285883122,14.094883745916816L247.6339964883978,13.730086788927217L248.89976011796432,9.992375349214191L250.16552374753084,8.818080478959939L251.4312873770974,6.950704439365511L252.6970510066639,9.063939307168129L253.30461754885587,-0.004919666213963122L254.57038117842242,3.3485705962412258L255.83614480798894,8.086093805912112L257.1019084375555,10.132143823415987L258.367672067122,10.454702256543769L259.6334356966886,12.093233865338291" fill="none"></path></g></g></g></g><g opacity="0.2"><g><g><g><path style="fill: none;" stroke="rgb(255, 112, 67)" stroke-width="2px" d="M25.31527259133079,142.34638352828205L26.581036220897328,150.71775978895542L27.846799850463867,146.83114917422614L29.112563480030406,149.46322254250742L30.378327109596945,152.4407553157152L31.644090739163484,153.8626148384705L32.909854368730024,158.03976108069156L34.175617998296566,159.862902427425L35.4413816278631,159.96316686809206L36.70714525742964,156.9643434776972L37.314711799621584,168.6977668811744L38.58047542918813,146.50248837659112L39.84623905875466,153.73406115970414L41.112002688321205,166.19019970981708L42.37776631788773,158.7560946736587L43.643529947454276,160.28528076200092L44.90929357702082,157.81545414217481L46.175057206587354,152.17349690247818L47.4408208361539,160.75596048438962L48.70658446572043,161.73731187749567L49.31415100791238,174.6802116412786L50.579914637478915,165.81343043276976L51.84567826704545,157.52204525788667L53.11144189661199,155.74942674104295L54.37720552617853,148.27151831791147L55.64296915574507,145.20864574400971L56.908732785311614,135.55946101357767L58.17449641487815,146.30870050557235L59.44026004444469,132.9046532105782L60.70602367401123,137.8249245478376L61.31359021620317,107.45033945082821L62.57935384576971,127.4200253524092L63.845117475336245,130.2262219167543L65.11088110490279,125.17472014689906L66.37664473446932,115.17551330850439L67.64240836403587,107.34407927329335L68.90817199360241,116.33073028707747L70.17393562316894,91.88648011918721L71.43969925273548,102.67956852933024L72.70546288230203,102.86477017924692L73.31302942449396,127.78166270281713L74.57879305406051,89.2591875243077L75.84455668362705,92.951890449136L77.11032031319357,80.55862086653977L78.37608394276012,89.14401761468868L79.64184757232665,77.61907067900533L80.9076112018932,74.13838966269667L82.17337483145974,79.3388071321679L83.43913846102627,63.24192631370334L84.70490209059281,71.92979216995275L85.31246863278474,70.55406052048617L86.57823226235129,53.08971076267502L87.84399589191783,65.88637697252106L89.10975952148438,63.055440205368924L90.37552315105091,56.47211153900667L91.64128678061746,54.708435105345266L92.90705041018398,53.038198228817954L94.17281403975053,47.240526766126415L95.43857766931707,46.591118009840194L96.70434129888362,48.03757155636621L97.31190784107555,36.82022365519591L98.57767147064209,47.14270663065724L99.84343510020864,42.53975403563906L101.10919872977516,48.3179860828743L102.37496235934171,33.34094212343192L103.64072598890824,38.332759711660614L104.9064896184748,47.769781147292L106.17225324804133,44.67728455294267L107.43801687760786,41.873599392369535L108.7037805071744,32.04530700037205L109.31134704936635,32.57341112026804L110.57711067893288,34.72661394736999L111.84287430849942,40.581827230073415L113.10863793806597,31.17021698298968L114.3744015676325,37.552039045938606L115.64016519719905,32.898091534634695L116.90592882676557,36.65895702519753L118.17169245633212,27.177583432112367L119.43745608589866,37.78990349098198L120.70321971546521,37.79265453251843L121.31078625765714,54.88346652853655L122.57654988722368,34.01723823689512L123.84231351679023,30.691324874411553L125.10807714635675,22.530815468232884L126.3738407759233,44.0161910592594L127.63960440548983,24.933720845944528L128.90536803505637,26.08954171168413L130.17113166462292,16.901848991749816L131.43689529418944,29.001495214258664L132.702658923756,25.086580983164218L133.31022546594792,-9.087470455513781L134.57598909551447,27.72089017178828L135.84175272508102,31.446509739948368L137.10751635464754,22.222622132063883L138.3732799842141,27.881255763792115L139.63904361378064,23.753600710884562L140.90480724334716,29.634397721326074L142.17057087291371,29.101999292690245L143.43633450248024,19.66845739739941L144.70209813204679,31.401496182264555L145.30966467423875,-13.764701172016578L146.57542830380527,25.944512936608334L147.8411919333718,29.840323245116785L149.10695556293834,28.777683127725627L150.3727191925049,23.70264413664113L151.63848282207144,34.094344084000845L152.90424645163796,25.83157645095445L154.17001008120448,24.02956756048352L155.43577371077106,17.558475637502813L156.70153734033758,28.089155902762318L157.3091038825295,88.02745900028486L158.57486751209606,22.399311848585498L159.84063114166258,23.84843975256334L161.10639477122916,15.502469887682329L162.37215840079568,24.19049869761158L163.6379220303622,21.20788081104111L164.90368565992875,31.534897733006787L166.1694492894953,17.02007667924388L167.43521291906183,30.254858235660627L168.70097654862838,21.82013612831914L169.3085430908203,114.29797898592413L170.57430672038683,15.723550103700049L171.8400703499534,26.26838816808627L173.10583397951993,14.89979049547374L174.37159760908648,17.144026916554186L175.637361238653,26.470479487644965L176.90312486821955,12.198478587895277L178.1688884977861,23.59579445020559L179.43465212735262,19.952811568755898L180.70041575691917,23.903613951461967L181.3079822991111,-7.3193463449432485L182.57374592867765,15.92689712514474L183.8395095582442,28.923708795901764L185.10527318781072,17.445079047341082L186.37103681737725,15.375404359433485L187.63680044694382,13.914438349889318L188.90256407651034,16.51404799021369L190.1683277060769,13.795367137464234L191.43409133564342,17.717307547813835L192.69985496520994,18.853947806882815L193.30742150740193,30.621868264748674L194.57318513696845,16.455710572823637L195.83894876653497,13.873450706649116L197.10471239610152,9.849050773709603L198.37047602566804,20.905179972434432L199.63623965523462,18.87222737555893L200.90200328480114,20.581697746890285L202.16776691436766,9.066853939358271L203.4335305439342,15.467808681424946L204.69929417350076,13.058720649389189L205.3068607156927,-17.982172459058976L206.57262434525924,17.079286378096686L207.83838797482576,20.766602245978994L209.10415160439229,16.088652616182678L210.36991523395886,21.744985725371727L211.63567886352538,19.63454386096728L212.90144249309193,12.438308062607549L214.16720612265846,15.505192172687055L215.43296975222503,26.554860737280954L216.69873338179156,14.904487395657938L217.3062999239835,-9.92054718002388L218.57206355355,25.030994607310642L219.83782718311656,23.402013768319755L221.1035908126831,7.74775348639851L222.36935444224966,19.58167977011843L223.63511807181618,12.199168744657046L224.9008817013827,13.307119570559996L226.16664533094928,13.679497485572863L227.4324089605158,14.972985454262805L228.69817259008235,9.470288908650431L229.30573913227428,58.596126486392436L230.5715027618408,17.112663125936344L231.83726639140738,19.029554360708897L233.1030300209739,22.16523368022125L234.36879365054043,17.742066921642042L235.63455728010697,11.151184872942729L236.90032090967352,20.56145314854527L238.16608453924007,22.75554776378161L239.4318481688066,12.998370274777338L240.69761179837312,9.485088936985997L241.30517834056508,-4.171963117012664L242.57094197013163,20.448037387362398L243.83670559969815,6.437816781553225L245.1024692292647,14.495646198398651L246.36823285883122,17.595418195278217L247.6339964883978,13.18289135344285L248.89976011796432,4.385808189644623L250.16552374753084,7.056638173578589L251.4312873770974,4.149640379973929L252.6970510066639,12.233791608872105L253.30461754885587,-13.608208126287082L254.57038117842242,8.37880598992397L255.83614480798894,15.192378620418461L257.1019084375555,13.201218849671857L258.367672067122,10.938539906235432L259.6334356966886,14.551031278530036" fill="none"></path></g></g></g></g></g></g><g transform="translate(51, 176)" clip-path="url(#clip_1)"><clipPath id="clip_1"><rect width="278" height="23"></rect></clipPath><g><g><line x1="0" y1="0" x2="0" y2="5" style="visibility: inherit;" fill="rgb(0, 0, 0)" stroke="rgb(204, 204, 204)" stroke-width="1px"></line><line x1="25.31527259133079" y1="0" x2="25.31527259133079" y2="5" style="visibility: inherit;" fill="rgb(0, 0, 0)" stroke="rgb(204, 204, 204)" stroke-width="1px"></line><line x1="50.63054518266158" y1="0" x2="50.63054518266158" y2="5" style="visibility: inherit;" fill="rgb(0, 0, 0)" stroke="rgb(204, 204, 204)" stroke-width="1px"></line><line x1="75.94581777399236" y1="0" x2="75.94581777399236" y2="5" style="visibility: inherit;" fill="rgb(0, 0, 0)" stroke="rgb(204, 204, 204)" stroke-width="1px"></line><line x1="101.26109036532316" y1="0" x2="101.26109036532316" y2="5" style="visibility: inherit;" fill="rgb(0, 0, 0)" stroke="rgb(204, 204, 204)" stroke-width="1px"></line><line x1="126.57636295665394" y1="0" x2="126.57636295665394" y2="5" style="visibility: inherit;" fill="rgb(0, 0, 0)" stroke="rgb(204, 204, 204)" stroke-width="1px"></line><line x1="151.89163554798472" y1="0" x2="151.89163554798472" y2="5" style="visibility: inherit;" fill="rgb(0, 0, 0)" stroke="rgb(204, 204, 204)" stroke-width="1px"></line><line x1="177.20690813931552" y1="0" x2="177.20690813931552" y2="5" style="visibility: inherit;" fill="rgb(0, 0, 0)" stroke="rgb(204, 204, 204)" stroke-width="1px"></line><line x1="202.5221807306463" y1="0" x2="202.5221807306463" y2="5" style="visibility: inherit;" fill="rgb(0, 0, 0)" stroke="rgb(204, 204, 204)" stroke-width="1px"></line><line x1="227.8374533219771" y1="0" x2="227.8374533219771" y2="5" style="visibility: inherit;" fill="rgb(0, 0, 0)" stroke="rgb(204, 204, 204)" stroke-width="1px"></line><line x1="253.15272591330788" y1="0" x2="253.15272591330788" y2="5" style="visibility: inherit;" fill="rgb(0, 0, 0)" stroke="rgb(204, 204, 204)" stroke-width="1px"></line><line x1="278.4679985046387" y1="0" x2="278.4679985046387" y2="5" style="visibility: inherit;" fill="rgb(0, 0, 0)" stroke="rgb(204, 204, 204)" stroke-width="1px"></line></g><g transform="translate(0, 8)"><text style="text-anchor: middle; visibility: hidden; font-family: Roboto, sans-serif; font-size: 12px; font-weight: 200;" x="0" y="0" dx="0em" dy="0.95em" fill="rgb(33, 33, 33)" stroke="none" stroke-width="1px">-1k</text><text style="text-anchor: middle; visibility: inherit; font-family: Roboto, sans-serif; font-size: 12px; font-weight: 200;" x="25.31527259133079" y="0" dx="0em" dy="0.95em" fill="rgb(33, 33, 33)" stroke="none" stroke-width="1px">0</text><text style="text-anchor: middle; visibility: inherit; font-family: Roboto, sans-serif; font-size: 12px; font-weight: 200;" x="50.63054518266158" y="0" dx="0em" dy="0.95em" fill="rgb(33, 33, 33)" stroke="none" stroke-width="1px">1k</text><text style="text-anchor: middle; visibility: inherit; font-family: Roboto, sans-serif; font-size: 12px; font-weight: 200;" x="75.94581777399236" y="0" dx="0em" dy="0.95em" fill="rgb(33, 33, 33)" stroke="none" stroke-width="1px">2k</text><text style="text-anchor: middle; visibility: inherit; font-family: Roboto, sans-serif; font-size: 12px; font-weight: 200;" x="101.26109036532316" y="0" dx="0em" dy="0.95em" fill="rgb(33, 33, 33)" stroke="none" stroke-width="1px">3k</text><text style="text-anchor: middle; visibility: inherit; font-family: Roboto, sans-serif; font-size: 12px; font-weight: 200;" x="126.57636295665394" y="0" dx="0em" dy="0.95em" fill="rgb(33, 33, 33)" stroke="none" stroke-width="1px">4k</text><text style="text-anchor: middle; visibility: inherit; font-family: Roboto, sans-serif; font-size: 12px; font-weight: 200;" x="151.89163554798472" y="0" dx="0em" dy="0.95em" fill="rgb(33, 33, 33)" stroke="none" stroke-width="1px">5k</text><text style="text-anchor: middle; visibility: inherit; font-family: Roboto, sans-serif; font-size: 12px; font-weight: 200;" x="177.20690813931552" y="0" dx="0em" dy="0.95em" fill="rgb(33, 33, 33)" stroke="none" stroke-width="1px">6k</text><text style="text-anchor: middle; visibility: inherit; font-family: Roboto, sans-serif; font-size: 12px; font-weight: 200;" x="202.5221807306463" y="0" dx="0em" dy="0.95em" fill="rgb(33, 33, 33)" stroke="none" stroke-width="1px">7k</text><text style="text-anchor: middle; visibility: inherit; font-family: Roboto, sans-serif; font-size: 12px; font-weight: 200;" x="227.8374533219771" y="0" dx="0em" dy="0.95em" fill="rgb(33, 33, 33)" stroke="none" stroke-width="1px">8k</text><text style="text-anchor: middle; visibility: inherit; font-family: Roboto, sans-serif; font-size: 12px; font-weight: 200;" x="253.15272591330788" y="0" dx="0em" dy="0.95em" fill="rgb(33, 33, 33)" stroke="none" stroke-width="1px">9k</text><text style="text-anchor: middle; visibility: hidden; font-family: Roboto, sans-serif; font-size: 12px; font-weight: 200;" x="278.4679985046387" y="0" dx="0em" dy="0.95em" fill="rgb(33, 33, 33)" stroke="none" stroke-width="1px">10k</text></g><line x1="0" y1="0" x2="278.4679985046387" y2="0" fill="rgb(0, 0, 0)" stroke="rgb(204, 204, 204)" stroke-width="1px"></line></g></g></g></g></svg>