<svg viewBox="0 0 330 200" xmlns="http://www.w3.org/2000/svg"><g><g><g><g><g><line x1="61.91500186920166" y1="176.89999961853027" x2="56.91500186920166" y2="176.89999961853027" style="visibility: inherit;" fill="rgb(0, 0, 0)" stroke="rgb(204, 204, 204)" stroke-width="1px"></line><line x1="61.91500186920166" y1="157.24444410536023" x2="56.91500186920166" y2="157.24444410536023" style="visibility: inherit;" fill="rgb(0, 0, 0)" stroke="rgb(204, 204, 204)" stroke-width="1px"></line><line x1="61.91500186920166" y1="137.58888859219022" x2="56.91500186920166" y2="137.58888859219022" style="visibility: inherit;" fill="rgb(0, 0, 0)" stroke="rgb(204, 204, 204)" stroke-width="1px"></line><line x1="61.91500186920166" y1="117.9333330790202" x2="56.91500186920166" y2="117.9333330790202" style="visibility: inherit;" fill="rgb(0, 0, 0)" stroke="rgb(204, 204, 204)" stroke-width="1px"></line><line x1="61.91500186920166" y1="98.27777756585016" x2="56.91500186920166" y2="98.27777756585016" style="visibility: inherit;" fill="rgb(0, 0, 0)" stroke="rgb(204, 204, 204)" stroke-width="1px"></line><line x1="61.91500186920166" y1="78.62222205268014" x2="56.91500186920166" y2="78.62222205268014" style="visibility: inherit;" fill="rgb(0, 0, 0)" stroke="rgb(204, 204, 204)" stroke-width="1px"></line><line x1="61.91500186920166" y1="58.9666665395101" x2="56.91500186920166" y2="58.9666665395101" style="visibility: inherit;" fill="rgb(0, 0, 0)" stroke="rgb(204, 204, 204)" stroke-width="1px"></line><line x1="61.91500186920166" y1="39.31111102634008" x2="56.91500186920166" y2="39.31111102634008" style="visibility: inherit;" fill="rgb(0, 0, 0)" stroke="rgb(204, 204, 204)" stroke-width="1px"></line><line x1="61.91500186920166" y1="19.65555551317004" x2="56.91500186920166" y2="19.65555551317004" style="visibility: inherit;" fill="rgb(0, 0, 0)" stroke="rgb(204, 204, 204)" stroke-width="1px"></line><line x1="61.91500186920166" y1="0" x2="56.91500186920166" y2="0" style="visibility: inherit;" fill="rgb(0, 0, 0)" stroke="rgb(204, 204, 204)" stroke-width="1px"></line></g><g transform="translate(51.91500186920166, 0)"><text style="text-anchor: end; visibility: hidden; font-family: Roboto, sans-serif; font-size: 12px; font-weight: 200;" x="0" y="176.89999961853027" dx="0em" dy="0.3em" fill="rgb(33, 33, 33)" stroke="none" stroke-width="1px">-2e-3</text><text style="text-anchor: end; visibility: inherit; font-family: Roboto, sans-serif; font-size: 12px; font-weight: 200;" x="0" y="157.24444410536023" dx="0em" dy="0.3em" fill="rgb(33, 33, 33)" stroke="none" stroke-width="1px">0</text><text style="text-anchor: end; visibility: hidden; font-family: Roboto, sans-serif; font-size: 12px; font-weight: 200;" x="0" y="137.58888859219022" dx="0em" dy="0.3em" fill="rgb(33, 33, 33)" stroke="none" stroke-width="1px">2e-3</text><text style="text-anchor: end; visibility: inherit; font-family: Roboto, sans-serif; font-size: 12px; font-weight: 200;" x="0" y="117.9333330790202" dx="0em" dy="0.3em" fill="rgb(33, 33, 33)" stroke="none" stroke-width="1px">4e-3</text><text style="text-anchor: end; visibility: hidden; font-family: Roboto, sans-serif; font-size: 12px; font-weight: 200;" x="0" y="98.27777756585016" dx="0em" dy="0.3em" fill="rgb(33, 33, 33)" stroke="none" stroke-width="1px">6e-3</text><text style="text-anchor: end; visibility: inherit; font-family: Roboto, sans-serif; font-size: 12px; font-weight: 200;" x="0" y="78.62222205268014" dx="0em" dy="0.3em" fill="rgb(33, 33, 33)" stroke="none" stroke-width="1px">8e-3</text><text style="text-anchor: end; visibility: hidden; font-family: Roboto, sans-serif; font-size: 12px; font-weight: 200;" x="0" y="58.9666665395101" dx="0em" dy="0.3em" fill="rgb(33, 33, 33)" stroke="none" stroke-width="1px">0.01</text><text style="text-anchor: end; visibility: inherit; font-family: Roboto, sans-serif; font-size: 12px; font-weight: 200;" x="0" y="39.31111102634008" dx="0em" dy="0.3em" fill="rgb(33, 33, 33)" stroke="none" stroke-width="1px">0.012</text><text style="text-anchor: end; visibility: hidden; font-family: Roboto, sans-serif; font-size: 12px; font-weight: 200;" x="0" y="19.65555551317004" dx="0em" dy="0.3em" fill="rgb(33, 33, 33)" stroke="none" stroke-width="1px">0.014</text><text style="text-anchor: end; visibility: hidden; font-family: Roboto, sans-serif; font-size: 12px; font-weight: 200;" x="0" y="0" dx="0em" dy="0.3em" fill="rgb(33, 33, 33)" stroke="none" stroke-width="1px">0.016</text></g><line x1="61.91500186920166" y1="0" x2="61.91500186920166" y2="176.89999961853027" fill="rgb(0, 0, 0)" stroke="rgb(204, 204, 204)" stroke-width="1px"></line></g></g><g transform="translate(61, 0)" clip-path="url(#clip_0)"><clipPath id="clip_0"><rect width="268" height="176"></rect></clipPath><g><g><g><line x1="0" y1="0" x2="0" y2="176.89999961853027" fill="rgb(0, 0, 0)" stroke="rgb(66, 66, 66)" stroke-width="1px" opacity="0.25"></line><line x1="24.371363466436215" y1="0" x2="24.371363466436215" y2="176.89999961853027" fill="rgb(0, 0, 0)" stroke="rgb(66, 66, 66)" stroke-width="1px" opacity="0.25"></line><line x1="48.74272693287243" y1="0" x2="48.74272693287243" y2="176.89999961853027" fill="rgb(0, 0, 0)" stroke="rgb(66, 66, 66)" stroke-width="1px" opacity="0.25"></line><line x1="73.11409039930864" y1="0" x2="73.11409039930864" y2="176.89999961853027" fill="rgb(0, 0, 0)" stroke="rgb(66, 66, 66)" stroke-width="1px" opacity="0.25"></line><line x1="97.48545386574486" y1="0" x2="97.48545386574486" y2="176.89999961853027" fill="rgb(0, 0, 0)" stroke="rgb(66, 66, 66)" stroke-width="1px" opacity="0.25"></line><line x1="121.85681733218107" y1="0" x2="121.85681733218107" y2="176.89999961853027" fill="rgb(0, 0, 0)" stroke="rgb(66, 66, 66)" stroke-width="1px" opacity="0.25"></line><line x1="146.22818079861727" y1="0" x2="146.22818079861727" y2="176.89999961853027" fill="rgb(0, 0, 0)" stroke="rgb(66, 66, 66)" stroke-width="1px" opacity="0.25"></line><line x1="170.59954426505348" y1="0" x2="170.59954426505348" y2="176.89999961853027" fill="rgb(0, 0, 0)" stroke="rgb(66, 66, 66)" stroke-width="1px" opacity="0.25"></line><line x1="194.97090773148972" y1="0" x2="194.97090773148972" y2="176.89999961853027" fill="rgb(0, 0, 0)" stroke="rgb(66, 66, 66)" stroke-width="1px" opacity="0.25"></line><line x1="219.34227119792592" y1="0" x2="219.34227119792592" y2="176.89999961853027" fill="rgb(0, 0, 0)" stroke="rgb(66, 66, 66)" stroke-width="1px" opacity="0.25"></line><line x1="243.71363466436213" y1="0" x2="243.71363466436213" y2="176.89999961853027" fill="rgb(0, 0, 0)" stroke="rgb(66, 66, 66)" stroke-width="1px" opacity="0.25"></line><line x1="268.08499813079834" y1="0" x2="268.08499813079834" y2="176.89999961853027" fill="rgb(0, 0, 0)" stroke="rgb(66, 66, 66)" stroke-width="1px" opacity="0.25"></line></g><g><line x1="0" y1="176.89999961853027" x2="268.08499813079834" y2="176.89999961853027" fill="rgb(0, 0, 0)" stroke="rgb(66, 66, 66)" stroke-width="1px" opacity="0.25"></line><line x1="0" y1="157.24444410536023" x2="268.08499813079834" y2="157.24444410536023" fill="rgb(0, 0, 0)" stroke="rgb(66, 66, 66)" stroke-width="1px" opacity="0.25"></line><line x1="0" y1="137.58888859219022" x2="268.08499813079834" y2="137.58888859219022" fill="rgb(0, 0, 0)" stroke="rgb(66, 66, 66)" stroke-width="1px" opacity="0.25"></line><line x1="0" y1="117.9333330790202" x2="268.08499813079834" y2="117.9333330790202" fill="rgb(0, 0, 0)" stroke="rgb(66, 66, 66)" stroke-width="1px" opacity="0.25"></line><line x1="0" y1="98.27777756585016" x2="268.08499813079834" y2="98.27777756585016" fill="rgb(0, 0, 0)" stroke="rgb(66, 66, 66)" stroke-width="1px" opacity="0.25"></line><line x1="0" y1="78.62222205268014" x2="268.08499813079834" y2="78.62222205268014" fill="rgb(0, 0, 0)" stroke="rgb(66, 66, 66)" stroke-width="1px" opacity="0.25"></line><line x1="0" y1="58.9666665395101" x2="268.08499813079834" y2="58.9666665395101" fill="rgb(0, 0, 0)" stroke="rgb(66, 66, 66)" stroke-width="1px" opacity="0.25"></line><line x1="0" y1="39.31111102634008" x2="268.08499813079834" y2="39.31111102634008" fill="rgb(0, 0, 0)" stroke="rgb(66, 66, 66)" stroke-width="1px" opacity="0.25"></line><line x1="0" y1="19.65555551317004" x2="268.08499813079834" y2="19.65555551317004" fill="rgb(0, 0, 0)" stroke="rgb(66, 66, 66)" stroke-width="1px" opacity="0.25"></line><line x1="0" y1="0" x2="268.08499813079834" y2="0" fill="rgb(0, 0, 0)" stroke="rgb(66, 66, 66)" stroke-width="1px" opacity="0.25"></line></g></g></g><g><g><line x1="0" y1="157.24444410536023" x2="268.08499813079834" y2="157.24444410536023" fill="rgb(0, 0, 0)" stroke="rgb(153, 153, 153)" stroke-width="1.5px"></line></g></g><g><g><line x1="24.371363466436215" y1="0" x2="24.371363466436215" y2="176.89999961853027" fill="rgb(0, 0, 0)" stroke="rgb(153, 153, 153)" stroke-width="1.5px"></line></g></g><g><g><g><g><g><path style="fill: none;" stroke="rgb(255, 112, 67)" stroke-width="2px" d="M35.338477026332505,-65.94325414638165L36.55704519965432,16.15986358777715L37.775613372976125,66.02698100052322L38.99418154629794,96.55890056311202L40.21274971961975,115.43802030766379L41.43131789294156,127.26595592689304L42.64988606626337,134.80136538406725L43.86845423958518,139.7083776237143L45.087022412907,142.9959720321809L46.3055905862288,145.273332215216L47.21951671622016,146.97884288520422L48.438084889541976,148.1200885294005L49.65665306286379,149.02778007719434L50.87522123618559,149.77420316267936L52.0937894095074,150.40476452689882L53.312357582829215,150.9483515259892L54.53092575615102,151.42503503284095L55.749493929472834,151.84841902982123L56.96806210279465,152.22759817787212L58.18663027611645,152.56997645286398L59.40519844943827,152.88064604679238L60.62376662276008,153.16408460199236L61.84233479608189,153.4236458186146L63.0609029694037,153.66184748977784L64.27947114272551,153.88100413529236L65.49803931604733,154.08341002339773L66.71660748936914,154.27036700400504L67.93517566269095,154.4435332565645L69.15374383601275,154.603860326894L70.0676699660041,154.76452899800145L71.28623813932593,154.88675016590517L72.50480631264773,155.0068886724006L73.72337448596954,155.12280594378595L74.94194265929136,155.23303200366166L76.16051083261317,155.3377264583817L77.37907900593497,155.43657170701115L78.59764717925678,155.52951333735197L79.8162153525786,155.61709121168067L81.0347835259004,155.6993074681375L82.25335169922222,155.77654695044208L83.47191987254402,155.8491799738874L84.69048804586585,155.91775777193374L85.90905621918765,155.9824566592318L87.12762439250946,156.0435349622259L88.34619256583127,156.10087426455058L89.56476073915309,156.1549363255776L90.78332891247489,156.20599585551702L92.00189708579671,156.2542925906984L92.91582321578807,156.30388329410073L94.13439138910987,156.3415334632536L95.35295956243168,156.37918786652284L96.57152773575349,156.41601828099448L97.79009590907529,156.4516781367765L99.00866408239712,156.48610914072523L100.22723225571892,156.5192889020974L101.44580042904074,156.5509771106417L102.66436860236254,156.58106293083628L103.88293677568436,156.60954477496367L105.10150494900617,156.63654216453514L106.32007312232798,156.66218657758546L107.53864129564978,156.6865226779273L108.75720946897161,156.70961715017083L109.97577764229341,156.73157865131674L111.19434581561522,156.75250233678665L112.41291398893704,156.77241869941756L113.63148216225885,156.79142060188408L114.85005033558065,156.80964735288293L115.76397646557201,156.82865634368684L116.98254463889381,156.84323482455682L118.20111281221564,156.8578262532764L119.41968098553744,156.87218760580404L120.63824915885925,156.88615177308083L121.85681733218107,156.8997019091478L123.07538550550288,156.91266023800145L124.29395367882468,156.9249820472665L125.5125218521465,156.93694229552662L126.7310900254683,156.94838304175408L127.94965819879012,156.95929683791252L129.16822637211192,156.96974932729785L130.38679454543373,156.97955507231856L131.60536271875554,156.98905044107477L132.82393089207736,156.99836492560738L134.04249906539917,157.00717568466325L135.26106723872098,157.01556131022116L136.47963541204277,157.02380698828688L137.6982035853646,157.03172531120234L138.61212971535596,157.03979506436966L139.83069788867778,157.04588223762323L141.0492660619996,157.05226733387443L142.26783423532137,157.05875556580634L143.48640240864322,157.06498408583874L144.70497058196503,157.07071486327789L145.9235387552868,157.0762723674977L147.14210692860863,157.08164686450695L148.36067510193047,157.08688360530124L149.57924327525225,157.09195102292L150.79781144857407,157.0966823661124L152.01637962189588,157.10142666278924L153.23494779521766,157.1061229064366L154.4535159685395,157.11053378514228L155.67208414186132,157.11500787892487L156.8906523151831,157.11948730909344L158.10922048850492,157.12354414137138L159.32778866182676,157.1272678818166L160.54635683514854,157.1308384215744L161.46028296513992,157.1342276864044L162.6788511384617,157.13680931397934L163.89741931178352,157.13936315341348L165.11598748510536,157.14229840734342L166.33455565842715,157.14529563168955L167.55312383174896,157.14824110565826L168.77169200507078,157.15087727260357L169.99026017839256,157.15342518282438L171.2088283517144,157.1559537720901L172.42739652503622,157.15836889348023L173.645964698358,157.160619218036L174.8645328716798,157.16287277934046L176.08310104500165,157.16500298901465L177.30166921832344,157.16741803947752L178.52023739164525,157.16957279773874L179.73880556496707,157.17139986877677L180.95737373828888,157.17316168491118L182.1759419116107,157.17467276396172L183.3945100849325,157.17629489643673L184.30843621492386,157.17821962524724L185.52700438824567,157.17975265680707L186.74557256156746,157.18120560313795L187.9641407348893,157.18268898207202L189.1827089082111,157.18400695077418L190.4012770815329,157.18515833745906L191.6198452548547,157.18626871773688L192.83841342817655,157.18766655029975L194.05698160149834,157.1889645592906L195.27554977482015,157.19002729194708L196.49411794814196,157.19098279042223L197.71268612146378,157.1922760115299L198.9312542947856,157.19354549095718L200.1498224681074,157.19462790311752L201.3683906414292,157.1953859097859L202.58695881475103,157.19612486093135L203.80552698807284,157.19683175986543L205.02409516139463,157.1976602630887L206.24266333471644,157.19849071936125L207.1565894647078,157.1990614381419L208.3751576380296,157.19950907512785L209.59372581135145,157.20004209191103L210.81229398467323,157.2004595065581L212.03086215799505,157.200926923927L213.24943033131686,157.2016827066192L214.46799850463867,157.2023741051563L215.68656667796049,157.20301922558082L216.9051348512823,157.20372288390115L218.12370302460408,157.20462483205324L219.34227119792592,157.20544593099342L220.56083937124774,157.20602348465536L221.77940754456952,157.20641370195762L222.99797571789134,157.2069581490727L224.21654389121315,157.20766378835458L225.43511206453496,157.2082925171237L226.65368023785678,157.2087711389744L227.8722484111786,157.20916625471347L229.09081658450037,157.2095867007741L230.00474271449175,157.2101811958112L231.22331088781357,157.21061285756068L232.44187906113538,157.21097479089056L233.6604472344572,157.21122547223922L234.87901540777898,157.21138519476932L236.09758358110082,157.21148505499684L237.31615175442263,157.21155091689837L238.53471992774442,157.21167632495886L239.75328810106623,157.21191008181663L240.97185627438805,157.21217282298085L242.19042444770986,157.21246522524342L243.40899262103167,157.2128058126374L244.62756079435349,157.21313938803516L245.84612896767527,157.21343749091434L247.0646971409971,157.2136976135159L248.28326531431892,157.21392526686537L249.5018334876407,157.214128872974L250.72040166096252,157.21432190225656L251.93896983428436,157.21456159767703" fill="none"></path></g></g></g></g><g opacity="0.2"><g><g><g><path style="fill: none;" stroke="rgb(255, 112, 67)" stroke-width="2px" d="M25.589931639758024,-5138.87604106494L26.808499813079834,91.30106344272559L28.027067986401644,105.63404942433283L29.245636159723453,114.19130597575875L30.464204333045267,120.7103116641474L31.682772506367076,125.8584749292012L32.901340679688886,130.01543919508475L34.11990885301069,133.40021798515355L35.338477026332505,136.21583482651172L36.55704519965432,138.56987095395596L37.775613372976125,140.55628246881406L38.99418154629794,142.2570878922132L40.21274971961975,143.71971376355017L41.43131789294156,144.9939560614202L42.64988606626337,146.09916501525947L43.86845423958518,147.0668195000581L45.087022412907,147.92652892501664L46.3055905862288,148.68902555686634L47.21951671622016,149.5369529997558L48.438084889541976,149.83189440707153L49.65665306286379,150.38928753090804L50.87522123618559,150.89382305408517L52.0937894095074,151.35059910362753L53.312357582829215,151.763728161041L54.53092575615102,152.14005826028114L55.749493929472834,152.48349394196802L56.96806210279465,152.79636631781912L58.18663027611645,153.08354354997306L59.40519844943827,153.34665026598256L60.62376662276008,153.58924234080106L61.84233479608189,153.81298759190395L63.0609029694037,154.0191499680862L64.27947114272551,154.20973908786635L65.49803931604733,154.3870188468571L66.71660748936914,154.5508024700951L67.93517566269095,154.70328263272455L69.15374383601275,154.84435093089994L70.0676699660041,155.0055320037678L71.28623813932593,155.07008191735227L72.50480631264773,155.18709643190292L73.72337448596954,155.2966818507245L74.94194265929136,155.39837109339567L76.16051083261317,155.4947681404164L77.37907900593497,155.58483957992962L78.59764717925678,155.66892578284873L79.8162153525786,155.74845802316554L81.0347835259004,155.82263185281812L82.25335169922222,155.89240617389635L83.47191987254402,155.95812950905392L84.69048804586585,156.02062446900234L85.90905621918765,156.07950499017844L87.12762439250946,156.13515241671678L88.34619256583127,156.18688321803742L89.56476073915309,156.23602941711806L90.78332891247489,156.28258515042612L92.00189708579671,156.32673769347042L92.91582321578807,156.37826934920417L94.13439138910987,156.3980087169829L95.35295956243168,156.43566947142673L96.57152773575349,156.47126390270193L97.79009590907529,156.50516792044957L99.00866408239712,156.5377556466483L100.22723225571892,156.56905854415567L101.44580042904074,156.59850942345815L102.66436860236254,156.62619166112813L103.88293677568436,156.65226754115474L105.10150494900617,156.6770382488923L106.32007312232798,156.70065319716093L107.53864129564978,156.72302682844006L108.75720946897161,156.74425885853609L109.97577764229341,156.7645209030356L111.19434581561522,156.7838878649915L112.41291398893704,156.80229324336395L113.63148216225885,156.8199234555839L114.85005033558065,156.83698747938118L115.76397646557201,156.85716982989268L116.98254463889381,156.8651025458618L118.20111281221564,156.87971339635575L119.41968098553744,156.89372963459553L120.63824915885925,156.90709802399607L121.85681733218107,156.92002711324827L123.07538550550288,156.93209773128194L124.29395367882468,156.943464761164L125.5125218521465,156.95488266791685L126.7310900254683,156.9655441610953L127.94965819879012,156.97566753215014L129.16822637211192,156.9854280613758L130.38679454543373,156.99426368984967L131.60536271875554,157.00329349420906L132.82393089207736,157.0123366524063L134.04249906539917,157.02039182324705L135.26106723872098,157.02813974855798L136.47963541204277,157.0361755053855L137.6982035853646,157.04360279557557L138.61212971535596,157.0518996941206L139.83069788867778,157.0550129975036L141.0492660619996,157.06184497825117L142.26783423532137,157.0684879137042L143.48640240864322,157.0743268658874L144.70497058196503,157.07931102943658L145.9235387552868,157.08460862382736L147.14210692860863,157.08970861002086L148.36067510193047,157.09473871649269L149.57924327525225,157.09955214934817L150.79781144857407,157.10377938090093L152.01637962189588,157.1085431078045L153.23494779521766,157.11316727190763L154.4535159685395,157.11715010320086L155.67208414186132,157.12171901959874L156.8906523151831,157.1262064543463L158.10922048850492,157.12962938978833L159.32778866182676,157.1328534924844L160.54635683514854,157.13619423121114L161.46028296513992,157.13931158364937L162.6788511384617,157.1406817553418L163.89741931178352,157.1431939125647L165.11598748510536,157.14670128823832L166.33455565842715,157.1497914682087L167.55312383174896,157.15265931661133L168.77169200507078,157.15483152302156L169.99026017839256,157.1572470481556L171.2088283517144,157.1597466559887L172.42739652503622,157.16199157556542L173.645964698358,157.16399470486962L174.8645328716798,157.16625312129716L176.08310104500165,157.16819830352597L177.30166921832344,157.17104061517182L178.52023739164525,157.17280493513053L179.73880556496707,157.17414047533387L180.95737373828888,157.17580440911274L182.1759419116107,157.1769393825376L183.3945100849325,157.1787280951492L184.30843621492386,157.18110671846298L185.52700438824567,157.18205220414686L186.74557256156746,157.18338502263424L187.9641407348893,157.18491405047314L189.1827089082111,157.18598390382738L190.4012770815329,157.18688541748637L191.6198452548547,157.18793428815366L192.83841342817655,157.189763299144L194.05698160149834,157.19091157277686L195.27554977482015,157.1916213909318L196.49411794814196,157.1924160381349L197.71268612146378,157.19421584319144L198.9312542947856,157.19544971009807L200.1498224681074,157.19625152135808L201.3683906414292,157.1965229197884L202.58695881475103,157.19723328764954L203.80552698807284,157.19789210826653L205.02409516139463,157.1989030179236L206.24266333471644,157.19973640377006L207.1565894647078,157.1999175163129L208.3751576380296,157.20018053060676L209.59372581135145,157.20084161708579L210.81229398467323,157.20108562852877L212.03086215799505,157.20162804998034L213.24943033131686,157.2028163806575L214.46799850463867,157.203411202962L215.68656667796049,157.20398690621755L216.9051348512823,157.20477837138165L218.12370302460408,157.20597775428135L219.34227119792592,157.20667757940373L220.56083937124774,157.20688981514823L221.77940754456952,157.206999027911L222.99797571789134,157.20777481974534L224.21654389121315,157.20872224727742L225.43511206453496,157.20923561027735L226.65368023785678,157.20948907175048L227.8722484111786,157.20975892832203L229.09081658450037,157.2102173698651L230.00474271449175,157.21107293836684L231.22331088781357,157.21126035018492L232.44187906113538,157.21151769088536L233.6604472344572,157.21160149426223L234.87901540777898,157.21162477856447L236.09758358110082,157.21163484533812L237.31615175442263,157.21164970975065L238.53471992774442,157.2118644370496L239.75328810106623,157.21226071710325L240.97185627438805,157.2125669347272L242.19042444770986,157.21290382863722L243.40899262103167,157.21331669372842L244.62756079435349,157.2136397511318L245.84612896767527,157.21388464523307L247.0646971409971,157.21408779741824L248.28326531431892,157.21426674688962L249.5018334876407,157.21443428213684L250.72040166096252,157.21461144618047L251.93896983428436,157.2149211408077" fill="none"></path></g></g></g></g></g></g><g transform="translate(61, 176)" clip-path="url(#clip_1)"><clipPath id="clip_1"><rect width="268" height="23"></rect></clipPath><g><g><line x1="0" y1="0" x2="0" y2="5" style="visibility: inherit;" fill="rgb(0, 0, 0)" stroke="rgb(204, 204, 204)" stroke-width="1px"></line><line x1="24.371363466436215" y1="0" x2="24.371363466436215" y2="5" style="visibility: inherit;" fill="rgb(0, 0, 0)" stroke="rgb(204, 204, 204)" stroke-width="1px"></line><line x1="48.74272693287243" y1="0" x2="48.74272693287243" y2="5" style="visibility: inherit;" fill="rgb(0, 0, 0)" stroke="rgb(204, 204, 204)" stroke-width="1px"></line><line x1="73.11409039930864" y1="0" x2="73.11409039930864" y2="5" style="visibility: inherit;" fill="rgb(0, 0, 0)" stroke="rgb(204, 204, 204)" stroke-width="1px"></line><line x1="97.48545386574486" y1="0" x2="97.48545386574486" y2="5" style="visibility: inherit;" fill="rgb(0, 0, 0)" stroke="rgb(204, 204, 204)" stroke-width="1px"></line><line x1="121.85681733218107" y1="0" x2="121.85681733218107" y2="5" style="visibility: inherit;" fill="rgb(0, 0, 0)" stroke="rgb(204, 204, 204)" stroke-width="1px"></line><line x1="146.22818079861727" y1="0" x2="146.22818079861727" y2="5" style="visibility: inherit;" fill="rgb(0, 0, 0)" stroke="rgb(204, 204, 204)" stroke-width="1px"></line><line x1="170.59954426505348" y1="0" x2="170.59954426505348" y2="5" style="visibility: inherit;" fill="rgb(0, 0, 0)" stroke="rgb(204, 204, 204)" stroke-width="1px"></line><line x1="194.97090773148972" y1="0" x2="194.97090773148972" y2="5" style="visibility: inherit;" fill="rgb(0, 0, 0)" stroke="rgb(204, 204, 204)" stroke-width="1px"></line><line x1="219.34227119792592" y1="0" x2="219.34227119792592" y2="5" style="visibility: inherit;" fill="rgb(0, 0, 0)" stroke="rgb(204, 204, 204)" stroke-width="1px"></line><line x1="243.71363466436213" y1="0" x2="243.71363466436213" y2="5" style="visibility: inherit;" fill="rgb(0, 0, 0)" stroke="rgb(204, 204, 204)" stroke-width="1px"></line><line x1="268.08499813079834" y1="0" x2="268.08499813079834" y2="5" style="visibility: inherit;" fill="rgb(0, 0, 0)" stroke="rgb(204, 204, 204)" stroke-width="1px"></line></g><g transform="translate(0, 8)"><text style="text-anchor: middle; visibility: hidden; font-family: Roboto, sans-serif; font-size: 12px; font-weight: 200;" x="0" y="0" dx="0em" dy="0.95em" fill="rgb(33, 33, 33)" stroke="none" stroke-width="1px">-2k</text><text style="text-anchor: middle; visibility: inherit; font-family: Roboto, sans-serif; font-size: 12px; font-weight: 200;" x="24.371363466436215" y="0" dx="0em" dy="0.95em" fill="rgb(33, 33, 33)" stroke="none" stroke-width="1px">0</text><text style="text-anchor: middle; visibility: hidden; font-family: Roboto, sans-serif; font-size: 12px; font-weight: 200;" x="48.74272693287243" y="0" dx="0em" dy="0.95em" fill="rgb(33, 33, 33)" stroke="none" stroke-width="1px">2k</text><text style="text-anchor: middle; visibility: inherit; font-family: Roboto, sans-serif; font-size: 12px; font-weight: 200;" x="73.11409039930864" y="0" dx="0em" dy="0.95em" fill="rgb(33, 33, 33)" stroke="none" stroke-width="1px">4k</text><text style="text-anchor: middle; visibility: hidden; font-family: Roboto, sans-serif; font-size: 12px; font-weight: 200;" x="97.48545386574486" y="0" dx="0em" dy="0.95em" fill="rgb(33, 33, 33)" stroke="none" stroke-width="1px">6k</text><text style="text-anchor: middle; visibility: inherit; font-family: Roboto, sans-serif; font-size: 12px; font-weight: 200;" x="121.85681733218107" y="0" dx="0em" dy="0.95em" fill="rgb(33, 33, 33)" stroke="none" stroke-width="1px">8k</text><text style="text-anchor: middle; visibility: hidden; font-family: Roboto, sans-serif; font-size: 12px; font-weight: 200;" x="146.22818079861727" y="0" dx="0em" dy="0.95em" fill="rgb(33, 33, 33)" stroke="none" stroke-width="1px">10k</text><text style="text-anchor: middle; visibility: inherit; font-family: Roboto, sans-serif; font-size: 12px; font-weight: 200;" x="170.59954426505348" y="0" dx="0em" dy="0.95em" fill="rgb(33, 33, 33)" stroke="none" stroke-width="1px">12k</text><text style="text-anchor: middle; visibility: hidden; font-family: Roboto, sans-serif; font-size: 12px; font-weight: 200;" x="194.97090773148972" y="0" dx="0em" dy="0.95em" fill="rgb(33, 33, 33)" stroke="none" stroke-width="1px">14k</text><text style="text-anchor: middle; visibility: inherit; font-family: Roboto, sans-serif; font-size: 12px; font-weight: 200;" x="219.34227119792592" y="0" dx="0em" dy="0.95em" fill="rgb(33, 33, 33)" stroke="none" stroke-width="1px">16k</text><text style="text-anchor: middle; visibility: hidden; font-family: Roboto, sans-serif; font-size: 12px; font-weight: 200;" x="243.71363466436213" y="0" dx="0em" dy="0.95em" fill="rgb(33, 33, 33)" stroke="none" stroke-width="1px">18k</text><text style="text-anchor: middle; visibility: hidden; font-family: Roboto, sans-serif; font-size: 12px; font-weight: 200;" x="268.08499813079834" y="0" dx="0em" dy="0.95em" fill="rgb(33, 33, 33)" stroke="none" stroke-width="1px">20k</text></g><line x1="0" y1="0" x2="268.08499813079834" y2="0" fill="rgb(0, 0, 0)" stroke="rgb(204, 204, 204)" stroke-width="1px"></line></g></g></g></g></svg>